<?xml version="1.0" standalone="no"?>
<!DOCTYPE svg PUBLIC "-//W3C//DTD SVG 20010904//EN"
 "http://www.w3.org/TR/2001/REC-SVG-20010904/DTD/svg10.dtd">
<svg version="1.0" xmlns="http://www.w3.org/2000/svg"
 width="432.000000pt" height="432.000000pt" viewBox="0 0 432.000000 432.000000"
 preserveAspectRatio="xMidYMid meet">
<metadata>
Created by potrace 1.14, written by Peter Selinger 2001-2017
</metadata>
<g transform="translate(0.000000,432.000000) scale(0.100000,-0.100000)"
fill="#000000" stroke="none">
<path d="M2894 3467 c5 -20 2 -27 -14 -32 -11 -3 -23 -17 -26 -31 -4 -16 -17
-27 -38 -34 l-31 -10 37 4 c21 3 40 1 43 -4 3 -5 24 -14 45 -20 26 -7 45 -20
55 -38 l14 -27 -5 32 c-5 25 -2 33 14 42 11 6 23 22 26 36 4 17 13 25 29 25
12 0 29 5 37 10 10 6 3 8 -22 3 -25 -4 -49 0 -72 11 -19 9 -43 16 -55 16 -12
0 -21 6 -21 14 0 8 -5 18 -11 22 -8 5 -10 -1 -5 -19z"/>
<path d="M3595 3392 c-137 -14 -426 -102 -700 -215 -269 -110 -336 -140 -555
-248 -119 -59 -177 -83 -182 -75 -5 7 -8 5 -8 -6 0 -10 -33 -34 -92 -66 -144
-76 -483 -283 -533 -324 -5 -5 -41 -31 -80 -59 -206 -151 -332 -278 -410 -416
-16 -29 -53 -86 -82 -127 -106 -155 -123 -273 -50 -353 11 -13 19 -25 16 -27
-8 -7 -113 25 -145 44 -80 50 -84 163 -11 284 107 176 308 370 627 606 109 81
366 250 378 250 6 0 12 4 14 8 2 4 39 29 83 56 44 26 69 45 55 41 -28 -8 -315
-155 -372 -191 -21 -13 -40 -24 -42 -24 -2 0 -42 -23 -88 -51 -449 -278 -765
-537 -947 -779 -35 -47 -67 -84 -70 -83 -3 1 -27 -19 -53 -44 -48 -48 -58 -50
-37 -10 l12 22 -24 -21 c-34 -29 -76 -19 -100 24 -26 50 -31 50 -16 0 13 -42
13 -45 -7 -54 -12 -5 -28 -23 -36 -40 -10 -22 -26 -35 -50 -42 l-35 -10 44 1
c65 3 72 -17 28 -79 -78 -106 -121 -217 -119 -306 3 -154 139 -240 379 -239
93 0 265 20 323 36 8 2 29 7 46 9 139 24 471 132 709 231 503 210 923 444
1310 732 l100 74 -65 -61 c-221 -210 -602 -471 -1010 -694 -120 -66 -526 -266
-538 -266 -6 0 -14 -4 -17 -10 -6 -10 20 -2 80 25 16 7 50 22 75 33 189 81
571 269 750 370 684 384 1229 814 1466 1157 36 53 84 158 93 207 25 136 -109
259 -314 288 l-60 9 70 -4 c91 -5 120 -11 180 -39 179 -82 186 -269 21 -536
-37 -59 -115 -168 -141 -196 -5 -6 -30 -35 -54 -63 -24 -29 -87 -97 -140 -152
-99 -102 -117 -126 -46 -63 94 84 112 100 135 119 14 10 -6 -14 -45 -55 -93
-98 -41 -59 123 95 395 369 659 735 664 918 3 119 -96 203 -277 235 -51 9
-313 8 -385 -2 -53 -7 -258 -48 -310 -62 -45 -12 -17 2 100 54 120 53 277 106
345 118 22 4 46 12 54 18 9 6 12 7 9 1 -4 -6 3 -12 15 -12 17 -2 18 0 7 7 -21
13 -9 20 38 22 23 1 40 4 37 7 -6 6 -95 8 -140 3z m-1405 -1746 c0 -5 -208
-133 -300 -186 -136 -77 -467 -233 -585 -275 -120 -43 -333 -106 -401 -119
-16 -3 -40 -7 -54 -10 -71 -14 -104 -17 -205 -21 -201 -8 -326 39 -374 139
-23 47 -28 145 -10 193 l11 28 13 -25 c17 -30 18 -26 5 19 -8 31 -6 36 26 67
20 18 33 38 29 44 -3 5 -2 10 4 10 6 0 9 -19 7 -46 -16 -199 184 -294 549
-260 81 7 98 10 220 37 50 11 99 22 109 24 173 38 580 197 821 320 120 62 135
69 135 61z m-1805 -70 c-13 -33 -23 -46 -38 -46 -21 0 -24 -7 29 75 24 38 29
23 9 -29z"/>
<path d="M211 2774 c0 -12 -8 -24 -16 -28 -8 -3 -15 -12 -15 -20 0 -8 -8 -17
-17 -19 -14 -4 -13 -5 4 -6 12 0 25 -5 28 -11 3 -5 17 -10 31 -10 16 0 28 -8
35 -22 9 -22 9 -22 6 -2 -3 13 3 28 14 38 11 9 19 22 19 29 0 14 -40 37 -65
37 -7 0 -16 8 -18 18 -4 13 -5 12 -6 -4z"/>
<path d="M318 2733 c7 -3 16 -2 19 1 4 3 -2 6 -13 5 -11 0 -14 -3 -6 -6z"/>
<path d="M4020 2228 c0 -4 5 -19 10 -34 10 -24 7 -30 -20 -53 -17 -14 -32 -35
-34 -46 -2 -14 -16 -22 -52 -31 l-49 -12 50 4 c38 4 60 0 90 -15 21 -12 49
-21 61 -21 14 0 30 -12 44 -32 l21 -33 -6 33 c-6 28 -2 37 24 61 17 16 31 36
31 44 0 9 15 19 38 25 l37 11 -41 -2 c-24 0 -52 6 -67 16 -14 9 -40 19 -59 22
-18 3 -37 13 -43 21 -20 32 -34 49 -35 42z"/>
<path d="M3970 1411 c0 -4 -10 -18 -22 -31 -12 -13 -15 -21 -7 -18 8 3 29 -4
47 -14 19 -10 30 -14 27 -8 -4 6 3 20 16 31 14 12 17 19 8 19 -8 0 -26 7 -41
14 -16 8 -28 11 -28 7z"/>
<path d="M2212 890 c-18 -29 -15 -37 16 -47 22 -8 31 -6 49 13 l22 23 -32 7
c-18 3 -34 10 -37 15 -3 4 -11 -1 -18 -11z"/>
</g>
</svg>
